# AST/ASF file generated using VICON BodyLanguage
# -----------------------------------------------
:version 1.10
:name VICON
:units
  mass 1.0
  length 0.45
  angle deg
:documentation
   .ast/.asf automatically generated from VICON data using
   VICON BodyBuilder and BodyLanguage model FoxedUp or BRILLIANT.MOD
:root
   order TX TY TZ RX RY RZ
   axis XYZ
   position 0 0 0  
   orientation 0 0 0 
:bonedata
  begin
     id 1 
     name lhipjoint
     direction 0.611804 -0.747784 0.257906 
     length 2.29243 
     axis 0 0 0  XYZ
  end
  begin
     id 2 
     name lfemur
     direction 0.34202 -0.939693 0  
     length 7.31159  
     axis 0 0 20  XYZ
    dof rx ry rz
    limits (-160.0 20.0)
           (-70.0 70.0)
           (-60.0 70.0)
  end
  begin
     id 3 
     name ltibia
     direction 0.34202 -0.939693 0   
     length 7.33391   
     axis 0 0 20   XYZ
    dof rx
    limits (-10.0 170.0)
  end
  begin
     id 4 
     name lfoot
     direction 0.122263 -0.335914 0.933924   
     length 1.76083   
     axis -90 7.62852e-016 20   XYZ
    dof rx rz
    limits (-45.0 90.0)
           (-70.0 20.0)
  end
  begin
     id 5 
     name ltoes
     direction 1.53533e-011 -4.2177e-011 1   
     length 0.879206   
     axis -90 7.62852e-016 20   XYZ
    dof rx
    limits (-90.0 20.0)
  end
  begin
     id 6 
     name rhipjoint
     direction -0.646469 -0.721248 0.248754   
     length 2.37677  
     axis 0 0 0  XYZ 
  end
  begin
     id 7 
     name rfemur
     direction -0.34202 -0.939693 0   
     length 7.18623   
     axis 0 0 -20   XYZ
    dof rx ry rz
    limits (-160.0 20.0)
           (-70.0 70.0)
           (-70.0 60.0)
  end
  begin
     id 8 
     name rtibia
     direction -0.34202 -0.939693 0   
     length 7.36567   
     axis 0 0 -20   XYZ
    dof rx
    limits (-10.0 170.0)
 end
 begin
     id 9 
     name rfoot
     direction -0.126681 -0.348054 0.928876   
     length 1.71902  
     axis -90 -7.62852e-016 -20   XYZ
    dof rx rz
    limits (-45.0 90.0)
           (-20.0 70.0)
  end
  begin
     id 10 
     name rtoes
     direction -1.53551e-011 -4.21898e-011 1   
     length 0.857792   
     axis -90 -7.62852e-016 -20   XYZ
    dof rx
    limits (-90.0 20.0)
  end
  begin
     id 11 
     name lowerback
     direction 0.0106509 0.999778 0.0181844   
     length 2.07668   
     axis 0 0 0   XYZ
    dof rx ry rz
    limits (-20.0 45.0)
           (-30.0 30.0)
           (-30.0 30.0)
  end
  begin
     id 12 
     name upperback
     direction -0.00456018 0.999989 -0.000590935   
     length 2.08011   
     axis 0 0 0   XYZ
    dof rx ry rz
    limits (-20.0 45.0)
           (-30.0 30.0)
           (-30.0 30.0)
  end
  begin
     id 13 
     name thorax
     direction -0.00910382 0.999916 -0.00923765   
     length 2.07397   
     axis 0 0 0   XYZ
    dof rx ry rz
    limits (-20.0 45.0)
           (-30.0 30.0)
           (-30.0 30.0)
  end
  begin
     id 14 
     name lowerneck
     direction 0.00171967 0.99778 0.0665733   
     length 1.67556   
     axis 0 0 0   XYZ
    dof rx ry rz
    limits (-20.0 45.0)
           (-30.0 30.0)
           (-30.0 30.0)
  end
  begin
     id 15 
     name upperneck
     direction -0.0143166 0.991302 -0.130828   
     length 1.68462   
     axis 0 0 0   XYZ
    dof rx ry rz
    limits (-20.0 45.0)
           (-30.0 30.0)
           (-30.0 30.0)
  end
  begin
     id 16
     name head
     direction -0.00606378 0.998665 -0.0512995  
     length 1.69269  
     axis 0 0 0   XYZ
    dof rx ry rz
    limits (-20.0 45.0)
           (-30.0 30.0)
           (-30.0 30.0)
  end
  begin
     id 17 
     name lclavicle
     direction 0.9638 0.179341 0.197297  
     length 4.12888  
     axis 0 0 0   XYZ
    dof ry rz
    limits (-20.0 10.0)
           (0.0 20.0)
  end
  begin
     id 18 
     name lhumerus
     direction 1 -4.48972e-011 -2.47351e-027   
     length 5.01834   
     axis -180 -30 -90   XYZ
    dof rx ry rz
    limits (-60.0 90.0)
           (-90.0 90.0)
           (-90.0 90.0)
  end
  begin
     id 19
     name lradius
     direction 1 -4.48965e-011 1.51591e-026   
     length 3.4869   
     axis -180 -30 -90   XYZ
    dof rx
    limits (-10.0 170.0)
  end
  begin
     id 20
     name lwrist
     direction 1 -4.48957e-011 2.70032e-026   
     length 1.74345   
     axis -1.81515e-014 90 90   XYZ
    dof ry
    limits (-180.0 0.0)
 end
  begin
     id 21 
     name lhand
     direction 1 -4.48951e-011 5.40064e-026   
     length 0.76799   
     axis -3.44607e-014 90 90   XYZ
    dof rx rz
    limits (-90.0 90.0)
           (-45.0 45.0)
  end
  begin
     id 22 
     name lfingers
     direction 1 -4.48971e-011 1.08013e-025   
     length 0.619174   
     axis -6.89214e-014 90 90   XYZ
    dof rx
    limits (0.0 90.0)
  end
  begin
     id 23
     name lthumb
     direction 0.707107 -6.34931e-011 0.707107   
     length 0.889013   
     axis -90 45 2.85299e-015   XYZ
    dof rx rz
    limits (-45.0 45.0)
           (-45.0 45.0)
  end
  begin
     id 24 
     name rclavicle
     direction -0.961409 0.252588 0.109054   
     length 4.04305  
     axis 0 0 0   XYZ 
    dof ry rz
    limits (-10.0 20.0)
           (-20.0 0.0)
  end
  begin
     id 25 
     name rhumerus
     direction -1 -4.4897e-011 1.33872e-017  
     length 4.70164   
     axis -180 30 90   XYZ
    dof rx ry rz
    limits (-90.0 60.0)
           (-90.0 90.0)
           (-90.0 90.0)
  end
  begin
     id 26 
     name rradius
     direction -1 -4.48954e-011 1.83844e-026   
     length 3.49911   
     axis -180 30 90   XYZ
    dof rx
    limits (-10.0 170.0)
  end
  begin
     id 27 
     name rwrist
     direction -1 -4.49008e-011 2.70032e-026   
     length 1.74955   
     axis -1.81515e-014 -90 -90   XYZ
    dof ry
    limits (-180.0 0.0)
  end
  begin
     id 28
     name rhand
     direction -1 -4.48916e-011 5.40064e-026   
     length 0.739335   
     axis -3.44607e-014 -90 -90   XYZ
    dof rx rz
    limits (-90.0 90.0)
           (-45.0 45.0)
  end
  begin
     id 29
     name rfingers
     direction -1 -4.48987e-011 1.08013e-025   
     length 0.596071   
     axis -6.89214e-014 -90 -90   XYZ
    dof rx
    limits (0.0 90.0)
  end
  begin
     id 30
     name rthumb
     direction -0.707107 -6.34935e-011 0.707107   
     length 0.855843   
     axis -90 -45 -2.85299e-015   XYZ
    dof rx rz
    limits (-45.0 45.0)
           (-45.0 45.0)
  end
:hierarchy
  begin
    root lhipjoint rhipjoint lowerback
    lhipjoint lfemur
    lfemur ltibia
    ltibia lfoot
    lfoot ltoes
    rhipjoint rfemur
    rfemur rtibia
    rtibia rfoot
    rfoot rtoes
    lowerback upperback
    upperback thorax
    thorax lowerneck lclavicle rclavicle
    lowerneck upperneck
    upperneck head
    lclavicle lhumerus
    lhumerus lradius
    lradius lwrist
    lwrist lhand lthumb
    lhand lfingers
    rclavicle rhumerus
    rhumerus rradius
    rradius rwrist
    rwrist rhand rthumb
    rhand rfingers
  end

#!OML:ASF I:\salsa\salsa 7_09\Patient 1\Session 1\dancermale.ASF
:FULLY-SPECIFIED
:DEGREES
1053
root 4.54622 17.1357 1.78129 212.989 -95.6434 513.389
lowerback -3.68424 1.92411 3.18352
upperback -0.608119 2.43277 -0.0976762
thorax 1.57634 1.22893 -1.75974
lowerneck -23.1301 3.84649 -2.78036
upperneck 15.6369 -66.8753 -12.7703
head 219.869 -122.887 -360.702
rclavicle 1.23122e-014 -8.94531e-015
rhumerus -43.6451 23.3823 -100.363
rradius 95.9049
rwrist 5.27313
rhand -36.5188 -2.5436
rfingers 7.12502
rthumb -9.61037 -32.3044
lclavicle 1.23122e-014 -8.94531e-015
lhumerus -11.7468 -9.99191 87.5692
lradius 123.014
lwrist 36.1161
lhand -29.3311 42.079
lfingers 7.12502
lthumb -2.67147 792.042
rfemur -19.0304 -5.53955 27.6793
rtibia 27.7559
rfoot -18.5086 -22.5335
rtoes 25.9954
lfemur -37.2958 -1.22774 -16.0884
ltibia 56.9617
lfoot -11.677 5.64936
ltoes -3.4499
1054
root 4.62667 17.1562 1.78954 213.978 -96.0396 512.568
lowerback -3.96943 2.14562 3.15285
upperback -0.726522 2.71207 0.202344
thorax 1.61357 1.36498 -1.41119
lowerneck -22.876 3.64827 -3.37044
upperneck 16.0281 -67.3145 -13.0813
head 219.943 -123.607 -360.775
rclavicle -1.02685e-014 -1.14798e-014
rhumerus -43.5917 23.4587 -99.7417
rradius 95.7699
rwrist 5.39452
rhand -36.4305 -2.57262
rfingers 7.12502
rthumb -9.52515 -32.3373
lclavicle -1.02685e-014 -1.14798e-014
lhumerus -10.0049 -10.5375 87.1582
lradius 123.694
lwrist 29.8799
lhand -29.2169 41.3367
lfingers 7.12502
lthumb -2.56123 791.301
rfemur -18.9654 -5.85066 27.8886
rtibia 26.756
rfoot -18.0554 -22.1485
rtoes 27.4647
lfemur -36.2429 -1.37061 -15.9858
ltibia 60.1807
lfoot -12.5847 4.00772
ltoes -2.8515
1055
root 4.70053 17.174 1.79406 215.035 -96.5113 511.596
lowerback -4.33087 2.31779 3.10322
upperback -0.752474 2.91977 0.558325
thorax 1.77813 1.46746 -0.991897
lowerneck -22.7116 3.47126 -3.98521
upperneck 16.0613 -67.4288 -13.0967
head 219.796 -124.547 -360.679
rclavicle 1.75365e-014 -3.65888e-015
rhumerus -43.454 23.5481 -99.2023
rradius 95.6662
rwrist 5.28107
rhand -36.1528 -2.39426
rfingers 7.12502
rthumb -9.25726 -32.171
lclavicle 1.75365e-014 -3.65888e-015
lhumerus -7.99272 -11.0936 86.4996
lradius 124.025
lwrist 23.2353
lhand -29.2045 40.8123
lfingers 7.12502
lthumb -2.54918 790.777
rfemur -18.6846 -5.73089 28.1627
rtibia 25.6355
rfoot -17.8438 -21.9543
rtoes 30.3253
lfemur -34.7427 -1.42 -15.8034
ltibia 62.6166
lfoot -13.1635 2.23665
ltoes -0.970818
1056
root 4.7745 17.1867 1.79732 216.129 -97.0695 510.628
lowerback -4.76808 2.3938 3.19516
upperback -0.745343 2.98872 0.838789
thorax 2.02255 1.50262 -0.731811
lowerneck -22.6132 3.40716 -4.47337
upperneck 15.6556 -67.2545 -12.6669
head 219.535 -125.697 -360.648
rclavicle -2.67024e-014 1.63997e-015
rhumerus -43.0314 23.7794 -98.8997
rradius 95.3624
rwrist 5.11911
rhand -36.0068 -2.23803
rfingers 7.12502
rthumb -9.11639 -32.021
lclavicle -2.67024e-014 1.63997e-015
lhumerus -5.75558 -11.5462 85.3358
lradius 124.152
lwrist 16.4423
lhand -29.2617 41.2343
lfingers 7.12502
lthumb -2.60446 791.198
rfemur -18.4656 -5.15455 28.5491
rtibia 24.4975
rfoot -17.5789 -22.2543
rtoes 32.1573
lfemur -33.1057 -1.46109 -15.5407
ltibia 64.4912
lfoot -13.7537 1.08242
ltoes 0.396928
1057
root 4.85545 17.194 1.79906 216.548 -97.6673 510.501
lowerback -5.20811 2.41021 3.30946
upperback -0.84669 2.9793 1.01228
thorax 2.16044 1.4966 -0.601475
lowerneck -22.5021 3.33529 -4.77171
upperneck 15.5638 -67.344 -12.5092
head 219.432 -126.436 -360.666
rclavicle -1.5002e-015 8.10048e-015
rhumerus -42.5485 23.987 -98.8481
rradius 94.9627
rwrist 5.19885
rhand -35.9984 -2.26106
rfingers 7.12502
rthumb -9.10824 -32.0444
lclavicle -1.5002e-015 8.10048e-015
lhumerus -3.47521 -12.0617 83.7395
lradius 124.181
lwrist 10.6866
lhand -29.3806 42.626
lfingers 7.12502
lthumb -2.71924 792.588
rfemur -18.5121 -4.3115 28.9373
rtibia 23.3891
rfoot -16.8828 -23.0748
rtoes 32.0277
lfemur -31.4483 -1.54852 -15.2998
ltibia 65.7306
lfoot -14.1612 0.632832
ltoes 1.36563
1058
root 4.93979 17.1964 1.80081 216.542 -98.1449 510.782
lowerback -5.44755 2.46824 3.38791
upperback -1.05568 3.0403 1.09478
thorax 2.08067 1.52228 -0.551034
lowerneck -22.3419 3.1754 -4.90149
upperneck 15.891 -67.7249 -12.7442
head 219.401 -126.753 -360.575
rclavicle -7.88927e-016 -2.47984e-014
rhumerus -42.1934 23.9405 -98.9848
rradius 94.6436
rwrist 5.36751
rhand -35.8667 -2.11667
rfingers 7.12502
rthumb -8.98121 -31.9055
lclavicle -7.88927e-016 -2.47984e-014
lhumerus -1.25083 -12.7435 81.9009
lradius 124.112
lwrist 6.71516
lhand -29.8973 44.4513
lfingers 7.12502
lthumb -3.21828 794.407
rfemur -18.6562 -3.64652 29.1936
rtibia 22.4316
rfoot -15.7451 -23.833
rtoes 30.0818
lfemur -29.502 -1.60461 -15.1475
ltibia 66.1751
lfoot -14.3376 0.564985
ltoes 2.53303
